************************
*** NO ENGLISH TRACK ***
************************


General
Unique ID                      : 249530338402558741137644973453978062856 (0xBBB9CB8A1E18D320A46389F8258F5008)
Complete name                  : Qui veut la peau de Roger
Format                         : Matroska
Format version                 : Version 2
File size                      : 4.19 GiB
Duration                       : 1h 32mn
Overall bit rate               : 6 463 Kbps
Encoded date                   : UTC 2013-01-04 17:28:07
Writing application            : mkvmerge v5.8.0 ('No Sleep / Pillow') built on Sep  2 2012 15:37:04
Writing library                : libebml v1.2.3 + libmatroska v1.3.0

Video
ID                             : 1
Format                         : AVC
Format/Info                    : Advanced Video Codec
Format profile                 : High@L4.0
Format settings, CABAC         : Yes
Format settings, ReFrames      : 4 frames
Format settings, GOP           : M=8, N=32
Codec ID                       : V_MPEG4/ISO/AVC
Duration                       : 1h 32mn
Bit rate                       : 6 078 Kbps
Width                          : 1 920 pixels
Height                         : 1 080 pixels
Display aspect ratio           : 16:9
Frame rate mode                : Constant
Frame rate                     : 25.000 fps
Color space                    : YUV
Chroma subsampling             : 4:2:0
Bit depth                      : 8 bits
Scan type                      : MBAFF
Bits/(Pixel*Frame)             : 0.117
Stream size                    : 3.94 GiB (94%)
Default                        : Yes
Forced                         : No
Color primaries                : BT.709
Transfer characteristics       : BT.709
Matrix coefficients            : BT.709

Audio
ID                             : 2
Format                         : E-AC-3
Format/Info                    : Audio Coding 3
Format settings, Endianness    : Big
Codec ID                       : A_EAC3
Duration                       : 1h 32mn
Bit rate mode                  : Constant
Bit rate                       : 256 Kbps
Channel(s)                     : 6 channels
Channel positions              : Front: L C R, Side: L R, LFE
Sampling rate                  : 48.0 KHz
Compression mode               : Lossy
Delay relative to video        : 28ms
Stream size                    : 170 MiB (4%)
Default                        : Yes
Forced                         : No

